<mxfile host="app.diagrams.net" modified="2023-06-08T05:00:05.663Z" agent="Mozilla/5.0 (Windows NT 10.0; Win64; x64) AppleWebKit/537.36 (KHTML, like Gecko) Chrome/114.0.0.0 Safari/537.36 Edg/114.0.1823.37" etag="R4VzvB4AYCYWJJjsNtBY" version="21.3.7" type="device">
  <diagram name="Страница 1" id="Ot0oDgV1GaOG8j3PzN40">
    <mxGraphModel dx="1816" dy="534" grid="1" gridSize="10" guides="1" tooltips="1" connect="1" arrows="1" fold="1" page="1" pageScale="1" pageWidth="827" pageHeight="1169" math="0" shadow="0">
      <root>
        <mxCell id="0" />
        <mxCell id="1" parent="0" />
        <mxCell id="C3SkV7mtEXE5GrYCg_pa-3" value="" style="rounded=0;orthogonalLoop=1;jettySize=auto;html=1;" edge="1" parent="1" source="C3SkV7mtEXE5GrYCg_pa-1" target="C3SkV7mtEXE5GrYCg_pa-2">
          <mxGeometry relative="1" as="geometry" />
        </mxCell>
        <mxCell id="C3SkV7mtEXE5GrYCg_pa-7" value="" style="rounded=0;orthogonalLoop=1;jettySize=auto;html=1;" edge="1" parent="1" source="C3SkV7mtEXE5GrYCg_pa-1" target="C3SkV7mtEXE5GrYCg_pa-4">
          <mxGeometry relative="1" as="geometry" />
        </mxCell>
        <mxCell id="C3SkV7mtEXE5GrYCg_pa-9" value="" style="rounded=0;orthogonalLoop=1;jettySize=auto;html=1;" edge="1" parent="1" source="C3SkV7mtEXE5GrYCg_pa-1" target="C3SkV7mtEXE5GrYCg_pa-8">
          <mxGeometry relative="1" as="geometry" />
        </mxCell>
        <mxCell id="C3SkV7mtEXE5GrYCg_pa-11" value="" style="rounded=0;orthogonalLoop=1;jettySize=auto;html=1;" edge="1" parent="1" source="C3SkV7mtEXE5GrYCg_pa-1" target="C3SkV7mtEXE5GrYCg_pa-10">
          <mxGeometry relative="1" as="geometry" />
        </mxCell>
        <mxCell id="C3SkV7mtEXE5GrYCg_pa-13" value="" style="rounded=0;orthogonalLoop=1;jettySize=auto;html=1;" edge="1" parent="1" source="C3SkV7mtEXE5GrYCg_pa-1" target="C3SkV7mtEXE5GrYCg_pa-12">
          <mxGeometry relative="1" as="geometry" />
        </mxCell>
        <mxCell id="C3SkV7mtEXE5GrYCg_pa-27" value="" style="rounded=0;orthogonalLoop=1;jettySize=auto;html=1;" edge="1" parent="1" source="C3SkV7mtEXE5GrYCg_pa-1" target="C3SkV7mtEXE5GrYCg_pa-26">
          <mxGeometry relative="1" as="geometry" />
        </mxCell>
        <mxCell id="C3SkV7mtEXE5GrYCg_pa-1" value="Home page" style="rounded=0;whiteSpace=wrap;html=1;" vertex="1" parent="1">
          <mxGeometry x="210" y="250" width="120" height="60" as="geometry" />
        </mxCell>
        <mxCell id="C3SkV7mtEXE5GrYCg_pa-2" value="Lot page" style="rounded=0;whiteSpace=wrap;html=1;" vertex="1" parent="1">
          <mxGeometry x="490" y="230" width="100" height="60" as="geometry" />
        </mxCell>
        <mxCell id="C3SkV7mtEXE5GrYCg_pa-6" value="" style="rounded=0;orthogonalLoop=1;jettySize=auto;html=1;" edge="1" parent="1" source="C3SkV7mtEXE5GrYCg_pa-4" target="C3SkV7mtEXE5GrYCg_pa-5">
          <mxGeometry relative="1" as="geometry" />
        </mxCell>
        <mxCell id="C3SkV7mtEXE5GrYCg_pa-4" value="Manage-users page" style="rounded=0;whiteSpace=wrap;html=1;" vertex="1" parent="1">
          <mxGeometry x="240" y="380" width="100" height="60" as="geometry" />
        </mxCell>
        <mxCell id="C3SkV7mtEXE5GrYCg_pa-5" value="Manage bonus users page" style="rounded=0;whiteSpace=wrap;html=1;" vertex="1" parent="1">
          <mxGeometry x="250" y="490" width="100" height="60" as="geometry" />
        </mxCell>
        <mxCell id="C3SkV7mtEXE5GrYCg_pa-19" value="" style="edgeStyle=orthogonalEdgeStyle;rounded=0;orthogonalLoop=1;jettySize=auto;html=1;" edge="1" parent="1" source="C3SkV7mtEXE5GrYCg_pa-8" target="C3SkV7mtEXE5GrYCg_pa-18">
          <mxGeometry relative="1" as="geometry" />
        </mxCell>
        <mxCell id="C3SkV7mtEXE5GrYCg_pa-21" value="" style="edgeStyle=orthogonalEdgeStyle;rounded=0;orthogonalLoop=1;jettySize=auto;html=1;" edge="1" parent="1" source="C3SkV7mtEXE5GrYCg_pa-8" target="C3SkV7mtEXE5GrYCg_pa-20">
          <mxGeometry relative="1" as="geometry" />
        </mxCell>
        <mxCell id="C3SkV7mtEXE5GrYCg_pa-8" value="Manage Bonus page" style="rounded=0;whiteSpace=wrap;html=1;" vertex="1" parent="1">
          <mxGeometry x="30" y="330" width="120" height="60" as="geometry" />
        </mxCell>
        <mxCell id="C3SkV7mtEXE5GrYCg_pa-17" value="" style="rounded=0;orthogonalLoop=1;jettySize=auto;html=1;" edge="1" parent="1" source="C3SkV7mtEXE5GrYCg_pa-10" target="C3SkV7mtEXE5GrYCg_pa-16">
          <mxGeometry relative="1" as="geometry" />
        </mxCell>
        <mxCell id="C3SkV7mtEXE5GrYCg_pa-10" value="Manage Lots page" style="rounded=0;whiteSpace=wrap;html=1;" vertex="1" parent="1">
          <mxGeometry x="110" y="110" width="120" height="60" as="geometry" />
        </mxCell>
        <mxCell id="C3SkV7mtEXE5GrYCg_pa-15" value="" style="rounded=0;orthogonalLoop=1;jettySize=auto;html=1;" edge="1" parent="1" source="C3SkV7mtEXE5GrYCg_pa-12" target="C3SkV7mtEXE5GrYCg_pa-2">
          <mxGeometry relative="1" as="geometry">
            <mxPoint x="450" y="150" as="targetPoint" />
          </mxGeometry>
        </mxCell>
        <mxCell id="C3SkV7mtEXE5GrYCg_pa-12" value="Lots page" style="rounded=0;whiteSpace=wrap;html=1;" vertex="1" parent="1">
          <mxGeometry x="294" y="60" width="120" height="60" as="geometry" />
        </mxCell>
        <mxCell id="C3SkV7mtEXE5GrYCg_pa-16" value="Managel lot outcomes page" style="rounded=0;whiteSpace=wrap;html=1;" vertex="1" parent="1">
          <mxGeometry x="-30" y="100" width="120" height="60" as="geometry" />
        </mxCell>
        <mxCell id="C3SkV7mtEXE5GrYCg_pa-18" value="Add Bonus page" style="rounded=0;whiteSpace=wrap;html=1;" vertex="1" parent="1">
          <mxGeometry x="30" y="420" width="120" height="60" as="geometry" />
        </mxCell>
        <mxCell id="C3SkV7mtEXE5GrYCg_pa-20" value="Add Bonus page" style="rounded=0;whiteSpace=wrap;html=1;" vertex="1" parent="1">
          <mxGeometry x="-120" y="330" width="120" height="60" as="geometry" />
        </mxCell>
        <mxCell id="C3SkV7mtEXE5GrYCg_pa-22" value="Profile page" style="rounded=0;whiteSpace=wrap;html=1;" vertex="1" parent="1">
          <mxGeometry x="394" y="350" width="120" height="60" as="geometry" />
        </mxCell>
        <mxCell id="C3SkV7mtEXE5GrYCg_pa-23" value="" style="rounded=0;orthogonalLoop=1;jettySize=auto;html=1;" edge="1" parent="1" source="C3SkV7mtEXE5GrYCg_pa-1" target="C3SkV7mtEXE5GrYCg_pa-22">
          <mxGeometry relative="1" as="geometry">
            <mxPoint x="340" y="290" as="sourcePoint" />
            <mxPoint x="424" y="290" as="targetPoint" />
          </mxGeometry>
        </mxCell>
        <mxCell id="C3SkV7mtEXE5GrYCg_pa-24" value="User balance page" style="rounded=0;whiteSpace=wrap;html=1;" vertex="1" parent="1">
          <mxGeometry x="370" y="460" width="120" height="60" as="geometry" />
        </mxCell>
        <mxCell id="C3SkV7mtEXE5GrYCg_pa-25" value="" style="rounded=0;orthogonalLoop=1;jettySize=auto;html=1;" edge="1" parent="1" source="C3SkV7mtEXE5GrYCg_pa-1" target="C3SkV7mtEXE5GrYCg_pa-24">
          <mxGeometry relative="1" as="geometry">
            <mxPoint x="335" y="320" as="sourcePoint" />
            <mxPoint x="409" y="360" as="targetPoint" />
          </mxGeometry>
        </mxCell>
        <mxCell id="C3SkV7mtEXE5GrYCg_pa-26" value="Login page" style="rounded=0;whiteSpace=wrap;html=1;" vertex="1" parent="1">
          <mxGeometry x="-110" y="250" width="120" height="60" as="geometry" />
        </mxCell>
        <mxCell id="C3SkV7mtEXE5GrYCg_pa-28" value="Register page" style="rounded=0;whiteSpace=wrap;html=1;" vertex="1" parent="1">
          <mxGeometry x="-160" y="170" width="120" height="60" as="geometry" />
        </mxCell>
        <mxCell id="C3SkV7mtEXE5GrYCg_pa-29" value="" style="rounded=0;orthogonalLoop=1;jettySize=auto;html=1;" edge="1" parent="1" source="C3SkV7mtEXE5GrYCg_pa-1" target="C3SkV7mtEXE5GrYCg_pa-28">
          <mxGeometry relative="1" as="geometry">
            <mxPoint x="220" y="290" as="sourcePoint" />
            <mxPoint x="20" y="290" as="targetPoint" />
          </mxGeometry>
        </mxCell>
        <mxCell id="C3SkV7mtEXE5GrYCg_pa-30" value="" style="rounded=0;orthogonalLoop=1;jettySize=auto;html=1;strokeWidth=2;edgeStyle=orthogonalEdgeStyle;" edge="1" parent="1" source="C3SkV7mtEXE5GrYCg_pa-10" target="C3SkV7mtEXE5GrYCg_pa-1">
          <mxGeometry relative="1" as="geometry">
            <mxPoint x="266" y="260" as="sourcePoint" />
            <mxPoint x="194" y="110" as="targetPoint" />
            <Array as="points">
              <mxPoint x="260" y="70" />
            </Array>
          </mxGeometry>
        </mxCell>
        <mxCell id="C3SkV7mtEXE5GrYCg_pa-31" value="" style="rounded=0;orthogonalLoop=1;jettySize=auto;html=1;strokeWidth=2;edgeStyle=orthogonalEdgeStyle;" edge="1" parent="1" source="C3SkV7mtEXE5GrYCg_pa-16" target="C3SkV7mtEXE5GrYCg_pa-1">
          <mxGeometry relative="1" as="geometry">
            <mxPoint x="180" y="120" as="sourcePoint" />
            <mxPoint x="270" y="260" as="targetPoint" />
            <Array as="points">
              <mxPoint x="30" y="210" />
              <mxPoint x="220" y="210" />
            </Array>
          </mxGeometry>
        </mxCell>
        <mxCell id="C3SkV7mtEXE5GrYCg_pa-32" value="" style="rounded=0;orthogonalLoop=1;jettySize=auto;html=1;strokeWidth=2;edgeStyle=orthogonalEdgeStyle;" edge="1" parent="1" source="C3SkV7mtEXE5GrYCg_pa-12" target="C3SkV7mtEXE5GrYCg_pa-1">
          <mxGeometry relative="1" as="geometry">
            <mxPoint x="180" y="120" as="sourcePoint" />
            <mxPoint x="270" y="260" as="targetPoint" />
            <Array as="points">
              <mxPoint x="354" y="230" />
              <mxPoint x="320" y="230" />
            </Array>
          </mxGeometry>
        </mxCell>
        <mxCell id="C3SkV7mtEXE5GrYCg_pa-33" value="" style="rounded=0;orthogonalLoop=1;jettySize=auto;html=1;strokeWidth=2;edgeStyle=orthogonalEdgeStyle;" edge="1" parent="1" source="C3SkV7mtEXE5GrYCg_pa-2" target="C3SkV7mtEXE5GrYCg_pa-1">
          <mxGeometry relative="1" as="geometry">
            <mxPoint x="364" y="130" as="sourcePoint" />
            <mxPoint x="330" y="260" as="targetPoint" />
            <Array as="points">
              <mxPoint x="420" y="250" />
              <mxPoint x="420" y="250" />
            </Array>
          </mxGeometry>
        </mxCell>
        <mxCell id="C3SkV7mtEXE5GrYCg_pa-34" value="" style="rounded=0;orthogonalLoop=1;jettySize=auto;html=1;strokeWidth=2;edgeStyle=orthogonalEdgeStyle;" edge="1" parent="1" source="C3SkV7mtEXE5GrYCg_pa-22" target="C3SkV7mtEXE5GrYCg_pa-1">
          <mxGeometry relative="1" as="geometry">
            <mxPoint x="500" y="260" as="sourcePoint" />
            <mxPoint x="340" y="260" as="targetPoint" />
            <Array as="points">
              <mxPoint x="430" y="290" />
            </Array>
          </mxGeometry>
        </mxCell>
        <mxCell id="C3SkV7mtEXE5GrYCg_pa-35" value="" style="rounded=0;orthogonalLoop=1;jettySize=auto;html=1;strokeWidth=2;edgeStyle=orthogonalEdgeStyle;" edge="1" parent="1" source="C3SkV7mtEXE5GrYCg_pa-24" target="C3SkV7mtEXE5GrYCg_pa-1">
          <mxGeometry relative="1" as="geometry">
            <mxPoint x="440" y="360" as="sourcePoint" />
            <mxPoint x="340" y="300" as="targetPoint" />
            <Array as="points">
              <mxPoint x="440" y="430" />
              <mxPoint x="350" y="430" />
              <mxPoint x="350" y="290" />
            </Array>
          </mxGeometry>
        </mxCell>
        <mxCell id="C3SkV7mtEXE5GrYCg_pa-36" value="" style="rounded=0;orthogonalLoop=1;jettySize=auto;html=1;strokeWidth=2;edgeStyle=orthogonalEdgeStyle;" edge="1" parent="1" source="C3SkV7mtEXE5GrYCg_pa-4" target="C3SkV7mtEXE5GrYCg_pa-1">
          <mxGeometry relative="1" as="geometry">
            <mxPoint x="440" y="360" as="sourcePoint" />
            <mxPoint x="340" y="300" as="targetPoint" />
            <Array as="points">
              <mxPoint x="250" y="370" />
              <mxPoint x="270" y="370" />
            </Array>
          </mxGeometry>
        </mxCell>
        <mxCell id="C3SkV7mtEXE5GrYCg_pa-37" value="" style="rounded=0;orthogonalLoop=1;jettySize=auto;html=1;strokeWidth=2;edgeStyle=orthogonalEdgeStyle;" edge="1" parent="1" source="C3SkV7mtEXE5GrYCg_pa-5" target="C3SkV7mtEXE5GrYCg_pa-1">
          <mxGeometry relative="1" as="geometry">
            <mxPoint x="230" y="400" as="sourcePoint" />
            <mxPoint x="250" y="320" as="targetPoint" />
            <Array as="points">
              <mxPoint x="230" y="500" />
              <mxPoint x="230" y="360" />
              <mxPoint x="250" y="360" />
            </Array>
          </mxGeometry>
        </mxCell>
        <mxCell id="C3SkV7mtEXE5GrYCg_pa-39" value="" style="rounded=0;orthogonalLoop=1;jettySize=auto;html=1;strokeWidth=2;edgeStyle=orthogonalEdgeStyle;" edge="1" parent="1" source="C3SkV7mtEXE5GrYCg_pa-18" target="C3SkV7mtEXE5GrYCg_pa-1">
          <mxGeometry relative="1" as="geometry">
            <mxPoint x="260" y="510" as="sourcePoint" />
            <mxPoint x="260" y="320" as="targetPoint" />
            <Array as="points">
              <mxPoint x="190" y="430" />
              <mxPoint x="190" y="350" />
              <mxPoint x="230" y="350" />
            </Array>
          </mxGeometry>
        </mxCell>
        <mxCell id="C3SkV7mtEXE5GrYCg_pa-40" value="" style="rounded=0;orthogonalLoop=1;jettySize=auto;html=1;strokeWidth=2;edgeStyle=orthogonalEdgeStyle;" edge="1" parent="1" source="C3SkV7mtEXE5GrYCg_pa-8" target="C3SkV7mtEXE5GrYCg_pa-1">
          <mxGeometry relative="1" as="geometry">
            <mxPoint x="160" y="440" as="sourcePoint" />
            <mxPoint x="240" y="320" as="targetPoint" />
            <Array as="points">
              <mxPoint x="180" y="360" />
              <mxPoint x="180" y="340" />
              <mxPoint x="220" y="340" />
            </Array>
          </mxGeometry>
        </mxCell>
        <mxCell id="C3SkV7mtEXE5GrYCg_pa-41" value="" style="rounded=0;orthogonalLoop=1;jettySize=auto;html=1;strokeWidth=2;edgeStyle=orthogonalEdgeStyle;" edge="1" parent="1" source="C3SkV7mtEXE5GrYCg_pa-20" target="C3SkV7mtEXE5GrYCg_pa-1">
          <mxGeometry relative="1" as="geometry">
            <mxPoint x="160" y="370" as="sourcePoint" />
            <mxPoint x="230" y="320" as="targetPoint" />
            <Array as="points">
              <mxPoint x="-60" y="320" />
              <mxPoint x="150" y="320" />
              <mxPoint x="150" y="290" />
            </Array>
          </mxGeometry>
        </mxCell>
        <mxCell id="C3SkV7mtEXE5GrYCg_pa-42" value="" style="rounded=0;orthogonalLoop=1;jettySize=auto;html=1;strokeWidth=2;edgeStyle=orthogonalEdgeStyle;" edge="1" parent="1" source="C3SkV7mtEXE5GrYCg_pa-26" target="C3SkV7mtEXE5GrYCg_pa-1">
          <mxGeometry relative="1" as="geometry">
            <mxPoint x="-50" y="340" as="sourcePoint" />
            <mxPoint x="220" y="300" as="targetPoint" />
            <Array as="points">
              <mxPoint x="160" y="260" />
              <mxPoint x="160" y="270" />
            </Array>
          </mxGeometry>
        </mxCell>
        <mxCell id="C3SkV7mtEXE5GrYCg_pa-43" value="" style="rounded=0;orthogonalLoop=1;jettySize=auto;html=1;strokeWidth=2;edgeStyle=orthogonalEdgeStyle;" edge="1" parent="1" source="C3SkV7mtEXE5GrYCg_pa-28" target="C3SkV7mtEXE5GrYCg_pa-1">
          <mxGeometry relative="1" as="geometry">
            <mxPoint x="40" y="170" as="sourcePoint" />
            <mxPoint x="220" y="260" as="targetPoint" />
            <Array as="points">
              <mxPoint x="20" y="200" />
              <mxPoint x="20" y="220" />
              <mxPoint x="190" y="220" />
              <mxPoint x="190" y="280" />
            </Array>
          </mxGeometry>
        </mxCell>
      </root>
    </mxGraphModel>
  </diagram>
</mxfile>
